<svg width="1024" height="653" viewBox="0 0 1024 653" fill="none" xmlns="http://www.w3.org/2000/svg">
<path d="M222.647 607.392C221.468 606.405 219.62 602.676 218.921 601.438C217.859 599.528 217.372 597.284 216.708 595.15C213.17 583.871 213.48 572.223 213.492 560.602C214.361 566.957 215.222 573.323 215.67 579.717C216.26 588.21 218.815 597.072 226.421 603.257L233.968 605.144C248.477 609.415 258.434 612.253 272.439 609.569C279.908 608.134 284.087 601.917 284.794 594.093C285.148 590.163 268.174 575.178 263.788 573.991C259.401 572.805 254.66 572.396 250.073 572.357C246.303 572.325 244.338 570.679 243.917 567.358C241.492 548.337 239.648 529.238 241.39 510.08C242.604 496.718 249.33 485.373 257.384 474.943C262.471 468.352 268.045 462.135 273.41 455.761C273.745 455.313 274.151 454.924 274.613 454.609C287.762 446.899 294.15 432.889 304.511 422.589C307.52 419.597 310.56 416.634 313.631 413.699C314.567 412.803 315.934 412.245 316.618 411.212C324.264 399.658 335.667 390.717 340.094 376.884C341.497 372.502 344.276 368.584 346.108 364.309C349.252 356.987 351.552 349.253 355.259 342.25C360.719 331.93 366.788 321.893 373.219 312.143C376.572 307.058 382.511 306.39 387.555 310.005C401.706 320.152 417.72 326.837 433.436 333.821C442.477 337.833 452.697 339.413 462.524 341.346C469.501 342.718 491.491 349.575 497.336 351.085C504.51 352.935 512.006 353.521 519.238 355.187C535.312 358.893 551.22 363.35 567.364 366.698C579.888 369.296 592.616 371.111 605.336 372.447C613.76 373.332 622.341 372.754 631.551 372.84C630.804 379.006 634.664 384.056 637.84 389.476C639.208 391.833 639.928 394.671 640.403 397.386C642.003 406.504 643.261 415.542 643.072 424.978C642.864 435.274 645.242 445.626 646.465 455.953C647.384 463.707 648.399 471.449 649.126 479.222C650.195 490.69 651.091 502.177 651.948 513.664C652.18 516.808 651.984 519.952 651.893 523.119C651.591 533.447 650.765 543.786 651.107 554.091C651.319 560.866 652.864 567.66 654.421 574.302C655.234 577.764 657.412 580.763 661.96 580.374C662.494 580.374 663.021 580.494 663.503 580.723C663.984 580.952 664.41 581.285 664.747 581.698C673.788 595.319 679.531 610.19 681.622 626.44C682.475 633.081 683.033 639.801 688.887 644.517C689.791 645.244 695.203 648.95 695.703 650.388C703.871 653.866 707.24 653.057 716.292 652.503C724.284 652.015 732.303 651.996 740.294 651.52C755.762 649.783 757.983 633.018 747.299 622.302C745.727 620.73 736.646 615.892 732.338 615.648C720.577 614.988 712.735 605.847 709.386 594.718C705.589 582.103 702.31 569.331 698.855 556.617C698.568 555.556 698.336 554.338 698.584 553.312C698.832 552.287 699.523 550.998 700.4 550.475C700.848 550.208 702.397 551.135 703.006 551.886C708.183 558.24 711.579 565.361 713.741 573.382C715.097 578.417 718.647 582.857 721.159 587.593C721.666 588.594 722.062 589.649 722.338 590.737C723.698 595.728 726.694 614.033 745.42 614.575C751.552 614.799 768.125 617.413 774.288 616.175C776.254 615.782 778.164 614.996 780.063 614.277C783.062 613.161 785.487 611.97 786.25 608.016C786.663 605.882 785.535 607.828 788.196 605.364C787.661 604.719 791.085 599.504 789.662 598.384C784.072 585.345 777.354 586.316 768.38 582.146C766.108 581.1 763.654 580.503 761.155 580.385C758.404 580.299 755.652 581.25 752.869 581.356C746.497 581.596 745.876 572.62 744.072 566.619C740.267 553.992 736.383 541.366 733.364 528.542C732.083 523.107 732.244 517.102 732.896 511.487C734.52 497.532 733.793 483.75 732.566 469.787C731.481 457.447 732.275 444.899 732.861 432.453C733.514 418.553 734.532 404.653 736.006 390.816C737.091 380.692 737.995 370.286 741.175 360.736C744.052 352.091 746.399 343.001 752.775 335.424C758.549 328.558 761.556 319.472 768.451 313.22C770.625 311.255 772.944 309.42 775.283 307.64C780.279 303.839 784.167 299.78 785.829 293.052C790.153 275.584 794.084 257.797 800.892 241.244C807.315 225.525 815.071 209.888 828.617 198.133C834.12 193.359 838.051 186.882 840.582 179.663C841.675 176.566 844.67 174.051 847.072 171.528C850.374 168.062 854.222 165.087 857.292 161.444C860.571 157.557 864.171 156.536 869.112 157.333C874.432 158.185 879.823 158.5 885.205 158.276C888.92 158.084 892.566 157.194 895.952 155.655C901.982 152.928 905.504 148.114 905.386 141.166C905.386 140.792 905.367 140.423 905.359 140.05C905.147 128.457 905.21 128.708 916.365 125.996C923.099 124.362 929.097 125.293 935.147 128.354C942.851 132.284 950.56 130.712 957.576 126.716C963.976 123.053 970.808 121.607 977.84 121.713C988.249 121.862 995.159 115.881 1002.02 109.475C1004.33 107.326 1006.74 105.251 1008.71 102.794C1010.87 100.075 1012.8 97.1699 1014.46 94.1133C1016.34 90.7032 1017.99 87.1671 1019.39 83.5301C1021.08 79.0618 1022.7 74.5149 1023.71 69.8659C1024.81 64.9339 1022.75 61.7153 1018.05 59.9115C1016.16 59.1844 1014.12 58.8033 1012.18 58.2609C996.417 53.9145 980.694 49.4501 964.896 45.2609C956.239 43.0284 948.034 39.3134 940.646 34.2808C935.226 30.5592 931.138 25.9848 929.95 19.2961C929.231 15.2365 926.829 12.7882 922.989 11.3617C916.719 9.03519 910.614 6.25283 904.29 4.10319C900.272 2.73952 896.011 1.52911 891.817 1.35227C873.987 0.644888 856.137 0.0750537 838.295 0.000385873C823.648 -0.0624923 812.862 7.56541 803.479 18.2822C794.548 28.4999 785.059 38.2421 775.338 47.7013C764.029 58.705 752.197 69.1703 740.593 79.8753C735.408 84.658 730.29 89.5114 725.015 94.1879C723.993 95.0957 722.374 95.3237 721.041 95.8935C719.52 96.5419 717.92 97.0725 716.517 97.9174C709.087 102.429 701.689 106.992 694.323 111.605C681.351 119.756 666.669 123.356 652.145 127.171C629.707 133.066 607.168 138.568 584.613 143.987C570.013 147.497 555.053 147.878 540.237 146.542C521.589 144.86 503.071 141.736 484.443 139.779C472.257 138.497 460.008 137.786 447.772 137.519C424.371 137.012 400.959 137.153 377.559 136.733C365.868 136.521 354.76 139.782 343.447 141.716C333.034 143.492 322.613 145.465 312.393 148.118C303.253 150.476 294.464 154.185 285.376 156.763C279.896 158.335 274.157 159.589 268.473 159.793C250.108 160.45 231.72 160.705 213.339 160.819C201.857 160.89 190.34 159.334 178.889 160.214C135.988 163.499 109.077 143.264 90.0515 129.07C73.8132 116.954 57.4725 104.975 41.2774 92.8007C36.8277 89.4564 32.7592 85.609 28.4864 82.021C18.1639 73.3753 -3.0509 71.9959 0.368958 75.9926C6.771 83.4803 13.329 90.8331 20.0429 98.051C32.0595 110.992 76.3132 154.96 87.9406 162.144C92.3314 164.855 122.953 180.123 128.122 181.974C129.989 182.642 132.08 182.76 134.085 182.948C138.201 183.302 160.61 187.998 172.085 187.88C182.053 187.778 192.042 189.452 202.022 190.301C212.565 191.217 223.103 192.211 233.654 192.973C237.435 193.249 252.84 203.215 250.226 208.548C248.996 211.055 247.518 213.444 246.394 215.995C242.219 225.458 234.908 236.017 229.573 257.349C226.22 270.758 224.172 278.963 225.415 293.111C224.577 294.954 233.324 352.916 231.354 365.421C230.698 369.586 232.022 374.09 231.213 378.197C228.634 391.291 226.834 404.782 222.148 417.146C217.797 428.633 210.713 439.263 203.756 449.54C197.431 458.877 190.072 467.578 180.603 474.212C176.554 477.049 175.937 481.588 176.621 486.3C177.1 489.605 177.651 492.91 177.914 496.235C178.622 505.128 179.4 514.025 179.742 522.934C179.99 529.407 179.471 535.903 179.494 542.391C179.541 555.588 180.009 568.792 179.742 581.985C179.569 590.489 178.504 598.982 177.651 607.458C176.959 614.328 177.549 620.647 182.305 626.275C184.333 628.676 185.304 631.997 186.629 634.956C189.027 640.316 191.369 645.107 198.638 645.539C210.328 646.235 221.955 647.834 233.583 645.044C237.628 644.073 241.398 643.079 242.848 638.304C243.186 637.188 245.509 636.673 247.707 635.443C255.297 617.723 236.134 611.078 228.933 608.877L222.647 607.392Z" fill="#F09C20"/>
</svg>
