<svg viewBox="0 0 64 64" fill="none" xmlns="http://www.w3.org/2000/svg">
  <path d="M16 24c0-6 3-10 6-12l4 6 6-2 6 2 4-6c3 2 6 6 6 12" stroke="currentColor" stroke-width="2" stroke-linecap="round"/>
  <path d="M16 28c0 12 8 20 16 20s16-8 16-20" stroke="currentColor" stroke-width="2" stroke-linecap="round"/>
  <circle cx="26" cy="32" r="1.5" fill="currentColor"/>
  <circle cx="38" cy="32" r="1.5" fill="currentColor"/>
  <path d="M28 38c2 1 6 1 8 0" stroke="currentColor" stroke-width="2" stroke-linecap="round"/>
  <path d="M18 34c-4 0-6-2-8-4" stroke="currentColor" stroke-width="2" stroke-linecap="round"/>
  <path d="M46 34c4 0 6-2 8-4" stroke="currentColor" stroke-width="2" stroke-linecap="round"/>
</svg>
