<svg viewBox="0 0 64 64" fill="none" xmlns="http://www.w3.org/2000/svg">
  <path d="M10 24c3-4 8-7 13-7 6 0 9 4 9 4s3-4 9-4c5 0 10 3 13 7" stroke="currentColor" stroke-width="2" stroke-linecap="round"/>
  <path d="M16 34c2 8 8 14 16 14s14-6 16-14" stroke="currentColor" stroke-width="2" stroke-linecap="round"/>
  <path d="M22 42c2 2 6 4 10 4s8-2 10-4" stroke="currentColor" stroke-width="2" stroke-linecap="round"/>
  <circle cx="26" cy="30" r="1.5" fill="currentColor"/>
  <circle cx="38" cy="30" r="1.5" fill="currentColor"/>
  <path d="M32 34c-1.5 0-3 1-3 2s1.5 2 3 2 3-1 3-2-1.5-2-3-2z" stroke="currentColor" stroke-width="1.6" stroke-linecap="round"/>
  <path d="M12 20l-4-6c-1-1-3 0-2 2l2 6" stroke="currentColor" stroke-width="2" stroke-linecap="round"/>
  <path d="M52 20l4-6c1-1 3 0 2 2l-2 6" stroke="currentColor" stroke-width="2" stroke-linecap="round"/>
</svg>
