<?xml version="1.0" encoding="UTF-8"?>
<svg id="Ebene_1" xmlns="http://www.w3.org/2000/svg" xmlns:xlink="http://www.w3.org/1999/xlink" version="1.1" viewBox="0 0 1600 1600">
  <!-- Generator: Adobe Illustrator 29.8.0, SVG Export Plug-In . SVG Version: 2.1.1 Build 160)  -->
  <defs>
    <style>
      .st0 {
        fill: #93745d;
      }

      .st1 {
        fill: #dbcfba;
      }

      .st2 {
        fill: url(#Unbenannter_Verlauf);
      }

      .st3 {
        fill: #f3efe6;
      }

      .st4 {
        fill: none;
        stroke: #2a2a2a;
        stroke-width: 4px;
      }

      .st5 {
        fill: url(#Unbenannter_Verlauf_8);
      }

      .st6 {
        fill: url(#Unbenannter_Verlauf_9);
      }

      .st7 {
        fill: #ebc8a3;
      }

      .st8 {
        fill: #c0ac95;
      }

      .st9 {
        fill: #d6c09e;
      }

      .st10 {
        fill: #ae5225;
      }

      .st11 {
        fill: #c0682c;
      }

      .st12 {
        fill: #a4643e;
      }

      .st13 {
        fill: #fbfcfc;
      }

      .st14 {
        fill: #4d1f15;
      }

      .st15 {
        fill: #d07833;
      }

      .st16 {
        fill: #b79676;
      }

      .st17 {
        fill: #a6866a;
      }

      .st18 {
        fill: #281b22;
      }

      .st19 {
        fill: #804729;
      }

      .st20 {
        fill: #781f0d;
      }

      .st21 {
        fill: #230f10;
      }

      .st22 {
        fill: #d4cfc8;
      }

      .st23 {
        fill: url(#Unbenannter_Verlauf_12);
      }

      .st24 {
        fill: url(#Unbenannter_Verlauf_13);
      }

      .st25 {
        fill: url(#Unbenannter_Verlauf_10);
      }

      .st26 {
        fill: url(#Unbenannter_Verlauf_11);
      }

      .st27 {
        fill: #933819;
      }

      .st28 {
        fill: #dc8c42;
      }

      .st29 {
        fill: #f2c388;
      }

      .st30 {
        fill: #f9deb1;
      }
    </style>
    <linearGradient id="Unbenannter_Verlauf" data-name="Unbenannter Verlauf" x1="259.8" y1="1340.2" x2="260.8" y2="1339.2" gradientTransform="translate(-415740 2144260) scale(1600 -1600)" gradientUnits="userSpaceOnUse">
      <stop offset="0" stop-color="#1a1a1a"/>
      <stop offset="1" stop-color="#111"/>
    </linearGradient>
    <linearGradient id="Unbenannter_Verlauf_10" data-name="Unbenannter Verlauf 10" x1="487.7" y1="440.8" x2="339" y2="712.1" gradientUnits="userSpaceOnUse">
      <stop offset="0" stop-color="#99451f"/>
      <stop offset="1" stop-color="#7e2e14"/>
    </linearGradient>
    <linearGradient id="Unbenannter_Verlauf_13" data-name="Unbenannter Verlauf 13" x1="412.5" y1="500.5" x2="403.5" y2="654.2" gradientUnits="userSpaceOnUse">
      <stop offset="0" stop-color="#b15c29"/>
      <stop offset="1" stop-color="#853618"/>
    </linearGradient>
    <linearGradient id="Unbenannter_Verlauf_9" data-name="Unbenannter Verlauf 9" x1="821.1" y1="503.5" x2="1021.6" y2="683.9" gradientUnits="userSpaceOnUse">
      <stop offset="0" stop-color="#9a4620"/>
      <stop offset="1" stop-color="#813116"/>
    </linearGradient>
    <linearGradient id="Unbenannter_Verlauf_12" data-name="Unbenannter Verlauf 12" x1="954" y1="500.5" x2="961.1" y2="654.2" gradientUnits="userSpaceOnUse">
      <stop offset="0" stop-color="#b05b29"/>
      <stop offset="1" stop-color="#843518"/>
    </linearGradient>
    <linearGradient id="Unbenannter_Verlauf_8" data-name="Unbenannter Verlauf 8" x1="280.7" y1="1097.8" x2="755.8" y2="1126.8" gradientUnits="userSpaceOnUse">
      <stop offset="0" stop-color="#b2551b"/>
      <stop offset="1" stop-color="#c9722f"/>
    </linearGradient>
    <linearGradient id="Unbenannter_Verlauf_11" data-name="Unbenannter Verlauf 11" x1="448.3" y1="892.4" x2="368.1" y2="1114.8" gradientUnits="userSpaceOnUse">
      <stop offset="0" stop-color="#bdab96"/>
      <stop offset="1" stop-color="#d1c6b5"/>
    </linearGradient>
  </defs>
  <rect class="st2" width="1600" height="1600"/>
  <g>
    <rect class="st4" x="180" y="180" width="1240" height="1240" rx="28" ry="28"/>
    <path class="st4" d="M260,1200l240-260,170,190,260-320,410,460H260v-70Z"/>
    <circle class="st4" cx="570" cy="600" r="110"/>
  </g>
  <g id="Generatives_Objekt">
    <path class="st3" d="M1390.3,1415.7H203.4c-8.9,1.3-13.4-6.8-19-11.9-5.3-401.3-5.3-806.2,0-1207.5l19.8-15.1h1193.2c9.9,4.1,16.6,9.9,21.4,19.8v1198c-6,12.4-14.7,19-28.6,16.7Z"/>
    <g>
      <path class="st22" d="M1390.3,1415.7H203.4h1186.9Z"/>
      <path class="st22" d="M1358.5,1293.5c-13.4-2.9-27.7-1.6-41.3-1.6-18.6-4.5-26.6,5.7-25.4-19.8,1.9-2.7,34.4.7,40.5-.8s.6-3.1.8-3.2c.8-.5,4.3.8,4.8-.8-43-48.7-86.9-96.6-130.1-145.2-73.9-83.1-149-165.4-222.1-249.1-13.3-15.2-35.3-35.7-46-50.8-6-8.4-10-11.9-7.9-22.2,1.3-6.4,11.2-18.8,11.1-27,19.3,9.5,51.6-25.4,63.5-38.9,25.1-28.3,81.3-115.8,71.4-152.3-3.9-14.4-26.4-33.5-39.7-40.5-6.4-9.2-43.9-30.7-55.5-39.7-24.8-19-51.2-43.5-76.2-60.3-21.4-14.4-40.7-30.7-58.7,0-52.2-40-277-40.8-328.5-1.6-20.7-28.5-37.2-13-58.7,1.6-25.6,17.4-51,41-76.2,60.3s-48,29.1-55.5,39.7c-14.4,6.9-38.6,29.2-41.3,45.2-5.6,33.8,51.3,123,74.6,149.2,11.7,13.1,41.7,45.4,60.3,37.3,5.2,2.7,4.7,11.6,6.3,15.9-4.8,11.4-8.2,23.4-12.7,34.9s-7.8,16.9-11.1,25.4c-38.5,98.1-78.2,196-115.8,294.3s-9.5,23.7-9.5,34.1c-1.8,4.9-16.2,15.2-17.5,18.2-3.3,8.2-5.1,69.6-.8,72.2,13.5.2,27-.3,40.5,0,4.5,6.4,3.8,14.7,2.4,22.2l-27.8,1.6h-31.7c-8.9-337.4,2.7-679.7,4.8-1016.3,10.6-22.3,28.6-34.7,53.2-37.3,299.3.8,599.2-1.7,898.1,1.6,56.6.6,137.6-22.1,156.3,50-7.1,331.9,14.9,672.6,1.6,1003.6Z"/>
      <path class="st22" d="M276.4,1291.9c347.1,0,694.1-.7,1040.9,0,13.6,0,27.9-1.3,41.3,1.6-1.2,29.9,2.4,56.5-30.9,69.8H274c-35.4-12.8-28.6-42.2-29.4-71.4h31.7Z"/>
      <path class="st3" d="M1030.1,1268.1h33.3c50.8,0,101.6,0,152.3,0h117.4c-.2.1.6,2.8-.8,3.2-6,1.5-38.6-1.9-40.5.8-1.2,25.6,6.8,15.4,25.4,19.8-346.8-.7-693.8,0-1040.9,0l27.8-1.6c1.4-7.5,2.1-15.8-2.4-22.2,65.5,1.3,131.3-.1,196.8,0,119.4.2,239.2-1.6,358.6-1.6,57.5,0,115.3,1.6,173,1.6Z"/>
      <g>
        <path class="st25" d="M519.1,439.8c-14.5,11.1-41.8,46.6-49.2,63.5s-11.8,36.9-14.3,51.6c-.7,4.5-5,31.7-4.8,33.3.7,5.1,3.8,0,6.3.8-.9,10.3-.2,21.6,1.6,31.7-4.8-.7-3.1,4.2-3.2,7.1-.9,27.8-4.1,132.4-33.3,145.2-18.6,8.1-48.6-24.2-60.3-37.3-23.3-26.1-80.2-115.4-74.6-149.2,2.7-16,26.8-38.3,41.3-45.2-21,29.5,19.4,94.7,42.8,115.8,4.4,3.9,10.1,13.1,16.7,14.3s28.3-2.6,32.5-10.3c9.7-17.7,2.8-116.8,7.9-147.6,4.4-26.6,17.8-49.7,31.7-72.2,21.5-14.6,38-30.1,58.7-1.6Z"/>
        <path class="st28" d="M847.6,441.4c11.9,9.1,33.7,36,41.3,49.2-10.8,3.7-26.9-5.4-38.9-6.3-41.1-3.4-61.4,3.3-94.4,25.4-7.3,4.8-18.6,10.4-23.8,17.5,18.2-38.7,9.6-101.5-45.2-93.6-52.2,7.5-36.2,66.9-26.2,100l-19-11.1c-2.2-5.2-8.5-12.8-14.3-12.7-23.6-26.3-75.2-28.9-108.7-22.2-16,3.2-29.5,13.2-42.8,17.5-4.6,1.5-2.3,1.8-5.6-1.6,7.4-16.8,34.7-52.4,49.2-63.5,51.4-39.2,276.3-38.5,328.5,1.6Z"/>
        <path class="st8" d="M441.4,812.7c22.2,39.4,42.8,48.5,79.3,71.4,15.9,10,33.5,16.5,48.4,25.4,11.2,6.7,23.4,26.5,42,23.8,14.2,24.3,78.5,32.7,103.9,30.1s48.3-17.6,73.8-34.9c.6-.4,2.9.9,6.3-1.6,6.5-4.6,25.3-23.8,27-24.6s5.8,1.1,4.8,4c-22.4,18-124,137.3-138,162.6-6.9,12.3-10.7,25.9-15.9,38.9-.8-4-1.1-12.2-4.8-11.1-4.5-45.1-137.6-167.3-175.3-203.1-25.1-23.8-51.5-46.4-77-69.8,4.5-11.5,7.9-23.5,12.7-34.9,3,7.7,8.6,16.5,12.7,23.8Z"/>
        <path class="st24" d="M371.6,657.2c1.3-14.5-6.6-29.1-7.9-43.6-3.7-40.1,5.3-75.5,20.6-111.9,25.1-19.3,50.5-42.9,76.2-60.3-13.9,22.5-27.3,45.6-31.7,72.2-5.1,30.8,1.8,129.8-7.9,147.6s-24.1,11.9-32.5,10.3-12.3-10.3-16.7-14.3Z"/>
        <path class="st10" d="M942.8,773c.1,8.1-9.8,20.6-11.1,27l-1.6-1.6c3.6-46.5-41.7-86.9-80.9-103.1,35.5-34.4,45.1-78.8,55.5-125.4,5,35.4,3.8,186.2,38.1,203.1Z"/>
        <path class="st27" d="M458.9,620.7c5.7,31.8,30.6,66.1,60.3,79.3-42.9,25.1-75.7,60.4-77.8,112.7-4.1-7.3-9.7-16.1-12.7-23.8-1.7-4.3-1.1-13.1-6.3-15.9,29.2-12.8,32.4-117.4,33.3-145.2,0-2.9-1.6-7.8,3.2-7.1Z"/>
        <path class="st12" d="M371.6,657.2c-23.4-21.1-63.9-86.4-42.8-115.8s43.1-30.1,55.5-39.7c-15.3,36.3-24.3,71.8-20.6,111.9,1.3,14.5,9.2,29.2,7.9,43.6Z"/>
        <g>
          <path class="st6" d="M906.3,441.4c12.4,20.6,25.6,41.8,30.1,65.8,8,42.4-5.2,114.8,6.3,149.2,7.9,23.4,34.1,16.2,49.2,4,24.4-19.8,66.4-89.7,46-119,13.3,7,35.8,26.1,39.7,40.5,9.9,36.6-46.3,124-71.4,152.3-11.9,13.5-44.2,48.4-63.5,38.9-34.3-16.9-33.1-167.7-38.1-203.1-.7-4.7,1-11.7,0-15.9,4.4-5.2.3-25.4-1.6-32.5-3-11.1-8.6-21-14.3-30.9-7.6-13.2-29.4-40.1-41.3-49.2,18-30.7,37.3-14.4,58.7,0Z"/>
          <path class="st23" d="M982.5,501.7c22.9,50.4,27.5,105.7,9.5,158.7-15.1,12.2-41.3,19.4-49.2-4-11.6-34.3,1.6-106.7-6.3-149.2-4.5-24.1-17.8-45.3-30.1-65.8,25,16.8,51.4,41.3,76.2,60.3Z"/>
          <path class="st12" d="M1038,541.4c20.4,29.3-21.6,99.2-46,119,18-53,13.4-108.2-9.5-158.7,11.7,8.9,49.1,30.4,55.5,39.7Z"/>
        </g>
        <g>
          <path class="st5" d="M500.1,939.6c56.3,57.8,109.2,118.9,162.6,179.3,6-7.2,6.4-13.7,5.6-22.2,3.7-1.1,4,7.2,4.8,11.1s1.9,10.4,2.4,15.9c39.5-49,78.6-98.6,118.2-147.6,7,8.2,5,18.4,3.2,28.6s-10.9,34.1-14.3,42c-7.2,17-19.2,31.7-27,48.4-57.6,64.1-86.7,99.6-169,138l-88.1,34.9c-65.5-.1-131.3,1.3-196.8,0-13.5-.3-27,.2-40.5,0-4.3-2.6-2.5-64,.8-72.2s15.6-13.3,17.5-18.2l220.6-238Z"/>
          <path class="st27" d="M1207.8,1122.1c11,47.4,17.6,97.6,7.9,146-50.8,0-101.6,0-152.3,0,27.8-141.3,23.3-283.9-77.8-395.1,73.2,83.7,148.3,166,222.1,249.1Z"/>
          <path class="st10" d="M931.7,800c-2,10.3,1.9,13.8,7.9,22.2,46.5,139.9,104.5,276.4,87.3,428.4-20.7-62.3-44.4-124.3-69.8-184.9-26.2-62.4-55.9-125.3-87.3-184.9.2-.8-.1-2.2,0-3.2,21.3-12.3,58.4-54.3,60.3-79.3l1.6,1.6Z"/>
          <path class="st26" d="M500.1,939.6l-220.6,238c0-10.4,5.8-24.3,9.5-34.1,37.7-98.4,77.3-196.3,115.8-294.3,34,27.7,64.7,59.1,95.2,90.4Z"/>
          <path class="st28" d="M985.6,873c101,111.2,105.6,253.8,77.8,395.1h-33.3c-.5-5.9-1.3-11.8-3.2-17.5,17.2-152-40.7-288.5-87.3-428.4,10.7,15,32.8,35.6,46,50.8Z"/>
          <path class="st1" d="M668.3,1096.7c.9,8.5.5,15-5.6,22.2-53.4-60.4-106.4-121.5-162.6-179.3-30.5-31.3-61.2-62.8-95.2-90.4,3.3-8.5,7.8-16.9,11.1-25.4,25.4,23.4,51.9,46.1,77,69.8,37.8,35.8,170.8,158,175.3,203.1Z"/>
          <path class="st20" d="M1333.1,1268.1h-117.4c9.7-48.3,3.1-98.6-7.9-146,43.2,48.5,87.1,96.5,130.1,145.2-.4,1.6-3.9.3-4.8.8Z"/>
          <path class="st15" d="M1026.9,1250.6c1.9,5.6,2.6,11.6,3.2,17.5-57.6,0-115.4-1.6-173-1.6-15.3-69.6-37.7-138.2-52.4-207.9-3.9-18.4-7.6-34.7-7.9-53.9,1.8-10.1,3.8-20.3-3.2-28.6,22.2-27.4,52.1-59.1,71.4-87.3s4-5.2,4.8-7.9c31.4,59.6,61.1,122.5,87.3,184.9,25.4,60.6,49.1,122.5,69.8,184.9Z"/>
          <path class="st7" d="M804.8,1058.6c14.7,69.7,37,138.3,52.4,207.9-119.4,0-239.2,1.8-358.6,1.6l88.1-34.9c82.3-38.4,111.3-73.9,169-138,13-14.4,32-27.8,43.6-44.4l5.6,7.9Z"/>
          <path class="st1" d="M865.1,888.9c-19.3,28.2-49.2,59.8-71.4,87.3-39.7,49-78.8,98.6-118.2,147.6-.5-5.5-1.3-10.5-2.4-15.9,5.1-13,9-26.5,15.9-38.9,14.1-25.4,115.6-144.6,138-162.6,10.8-8.7,25.8-11.9,38.1-17.5Z"/>
          <path class="st7" d="M804.8,1058.6l-5.6-7.9c-11.6,16.6-30.7,30-43.6,44.4,7.7-16.7,19.8-31.4,27-48.4,3.4-7.9,13-34.7,14.3-42,.4,19.2,4.1,35.5,7.9,53.9Z"/>
        </g>
        <path class="st15" d="M888.9,490.6c5.7,9.9,11.3,19.8,14.3,30.9s6,27.3,1.6,32.5c-2.4-10.2-17.1-32.3-25.4-39.7-16.3-14.6-43.9-24-65.8-20.6-6.2,1-31,12.8-29.4,20.6s17.9-2.7,21.4-3.2c20.2-2.6,35,14.9,48.4,27,1.9,2.8,5.7,6.8,6.3,7.9,1.3,2.2,8,10.7,5.6,12.7-10.5-5.4-25-16.8-36.5-19s-23,1.8-34.9-1.6-26.1-22.4-38.9-28.6c33-22,53.4-28.8,94.4-25.4,12,1,28.1,10,38.9,6.3Z"/>
        <path class="st15" d="M627,509.6c-9.4.1-31.7,25.1-43.6,28.6-12.9,3.7-25-.8-38.1,1.6-11.3,2.1-32,18.4-36.5,19s-.3-2.9-.8-3.2c8.3-8.5,16.4-22.9,25.4-30.1,21.3-17.2,25.5-13.2,49.2-9.5s-6.5-20.2-19.8-22.2c-16.1-2.4-29.3,1.9-43.6,7.9-18,7.6-21.5,12.5-33.3,27-14.3,17.6-26.5,37.3-28.6,60.3-2.5-.8-5.6,4.3-6.3-.8s4-28.9,4.8-33.3c2.4-14.6,8.4-38.1,14.3-51.6,3.3,3.4.9,3.1,5.6,1.6,13.4-4.3,26.8-14.3,42.8-17.5,33.5-6.7,85.1-4.1,108.7,22.2Z"/>
        <path class="st10" d="M930.1,798.4c-1.9,25.1-39,67-60.3,79.3-2.3,1.4-1.4,4.1-3.2,2.4,3-22.7,6.6-45.8,4.8-69-3.5-43.8-26.5-65-60.3-88.9,13.6-7.8,26.8-16,38.1-27,39.2,16.2,84.5,56.6,80.9,103.1Z"/>
        <path class="st8" d="M869.8,877.8c-.1,1,.2,2.4,0,3.2-.8,2.7-3.1,5.6-4.8,7.9-12.3,5.6-27.3,8.8-38.1,17.5,1-2.9-3.2-4.7-4.8-4s-20.5,20-27,24.6c6.7-12.6,21.5-19.7,23.8-34.9,30.6-17.2,44.1-48.5,52.4-80.9,1.9,23.3-1.8,46.3-4.8,69,1.7,1.7.8-1,3.2-2.4Z"/>
        <path class="st1" d="M731.8,527.1c-4.4,5.9-3.8,8.9-6.3,14.3-35.4,76.2-13.3,114.9,49.2,158.7,11.7,8.2,25,14.1,36.5,22.2,33.8,23.9,56.8,45.1,60.3,88.9-8.3,32.4-21.7,63.7-52.4,80.9-21.6,12.1-35,11.4-57.1,1.6-8.8-3.9-19.9-9.7-23.8-19,52.4,15.7,112.7-5.5,98.4-69.8,6.1-3.8,4.2-1.6,11.1,1.6s1.3,3,2.4,3.2c3-13.6-15.2-30.1-28.6-23.8-2,.9-10.2,10.9-.8,9.5-5,11.2-3.1,20.9-9.5,32.5-16.5,30-62.6,29.2-85.7,7.1,22.5-13.5,40-37.7,46-63.5,15.3-65.7-51.6-77.6-102.3-68.2-39.8,7.3-55.4,29.1-46.8,68.2,5.8,26.4,22.8,49.9,46,63.5-22.6,23.8-76,21.6-88.9-11.9-3.8-10-1.8-18.5-3.2-27.8-3.3-22.6-36.1-6.1-34.1,12.7,7.8-4.1,9.6-12.6,19.8-14.3,3.8,5-8.9,2.6,0,7.1l1.6,32.5c-3.9-9.9-5.5-20.3-4.8-30.9-19.9,65.8,42.7,88.2,96.8,70.6-52.5,69.3-139-2.7-134.9-71.4,9.4-51.8,41.1-65.5,79.3-93.6,87.5-64.4,93.3-65.4,60.3-174.5-10-33-26-92.4,26.2-100,54.8-7.9,63.4,54.9,45.2,93.6Z"/>
        <path class="st11" d="M660.4,533.4c33,109.2,27.2,110.1-60.3,174.5,0-2-1.6-1.8-3.2-1.6,17.6-21.6,24.6-50.1,17.5-77-23.3,3.4-42.9,14.6-67.4,8.7-5.8-1.4-30.8-16.7-30.9-21.4s5.2-2.2,4.8-6.3-12.5-8.3-11.1-13.5c10.4.4,11.3,7.1,19.8,14.3v-19c-1.6,48.1,71.7,42.2,62.7-4-3.5-18.1-35.9-31.6-49.2-16.7-1-.2-2.2,0-3.2,0,29.4-28.4,74.2,15.9,47.6,46.8-13,15.1-38.5,11.7-53.2.8,16.7,22.5,54.3,8.6,75.4-1.6,26.7-12.9,44.5-64.5,31.7-95.2l19,11.1Z"/>
        <path class="st10" d="M596.9,706.4c1.6-.2,3.2-.4,3.2,1.6-38.3,28.2-69.9,41.9-79.3,93.6-5.1,27.8-2.9,54.4,0,82.5-36.5-22.9-57.2-32-79.3-71.4,2.1-52.3,34.9-87.6,77.8-112.7,31.3,14,46.1,9.8,77.8,6.3Z"/>
        <path class="st16" d="M655.6,873c11.3-3.7,39.7-24.2,42-23.8s28.5,21.8,40.5,25.4c3.9,9.3,15,15.1,23.8,19-2.2,7.9-3.9,1.8-7.9,4.8-8.3-4-44.8-19.8-51.6-20.6-14.2-1.6-65,21.3-78.5,30.1s-16,7-15.9,17.5,1.9,5.7,3.2,7.9c-18.6,2.7-30.9-17.1-42-23.8-14.9-8.9-32.5-15.4-48.4-25.4-2.9-28.1-5.1-54.7,0-82.5-4.1,68.7,82.3,140.7,134.9,71.4Z"/>
        <path class="st8" d="M819,892c-2.3,15.2-17.1,22.3-23.8,34.9-3.5,2.5-5.7,1.2-6.3,1.6.4-6.6-2.9-13.1-8.7-15.9-20.7,43.8-84.6,47.9-125.4,33.3s-29.5-20.8-46.8-20.6c-.2-10.4,8.1-12.4,15.9-17.5,38.6,32.3,112.2,31.8,152.3,2.4-.1-1.4-19-10.3-22.2-11.9,4-3,5.7,3.2,7.9-4.8,22.2,9.8,35.5,10.6,57.1-1.6Z"/>
        <path class="st1" d="M788.9,928.5c-25.5,17.3-40.1,31.6-73.8,34.9s-89.8-5.9-103.9-30.1-3.1-5.3-3.2-7.9c17.3-.1,30.9,14.9,46.8,20.6,40.7,14.6,104.6,10.4,125.4-33.3,5.8,2.7,9.1,9.2,8.7,15.9Z"/>
        <path class="st15" d="M763.5,617.5c-.3.8.2,2.3,0,3.2-1.6,5.9-6.1,14.9-6.3,19.8-1.3,21.3,7.8,41.3,17.5,59.5-62.5-43.7-84.6-82.5-49.2-158.7,4.4,28.6,11.6,60,38.1,76.2Z"/>
        <g>
          <path class="st28" d="M755.6,509.6c12.8,6.1,25.5,24.8,38.9,28.6s22.3-.8,34.9,1.6,26,13.6,36.5,19c2.5-2-4.2-10.5-5.6-12.7l19-31.7c8.3,7.4,23,29.4,25.4,39.7,1,4.2-.7,11.2,0,15.9-10.5,46.6-20,90.9-55.5,125.4s-24.5,19.2-38.1,27c-11.5-8.1-24.8-14.1-36.5-22.2-9.6-18.2-18.7-38.2-17.5-59.5s4.7-13.9,6.3-19.8c22.8-.2,38.9,18.5,63.5,7.1-6.8-3.6-14.4,1.8-23,.8-17.9-2.1-27.8-18.8-24.6-35.7l4-7.1c-17.4,55.8,71,50.3,59.5-.8-3.8-17.1-35-26.6-47.6-13.5-1,0-2.1,0-3.2,0,28-26,70.5,10,48.4,42.8,3.1-2.2,17.6-18.8,19-19,2.4-.3,21.8,7.4,29.4.8-10.1-3.9-21.5-4.4-30.9-10.3-7.9-4.9-17.6-20.7-25.4-25.4-38.5-23.3-60.3,27.7-69,57.1-26.4-16.2-33.7-47.5-38.1-76.2,2.5-5.4,1.9-8.4,6.3-14.3s16.5-12.6,23.8-17.5Z"/>
          <path class="st14" d="M792.1,571.5c-12.2,11.3-5.8,7.4-4.8,17.5.4,4,2.5,21.9,3.2,23,3.3,5.6,17.8,11.7,24.6,10.3s20.2-16.6,21.4-21.4-1.5-26.5-7.9-18.2c-3.1-5.2-18.9-9.1-23.8-3.2-2.2-3.3-5.2-7.5-9.5-7.9,12.6-13.1,43.8-3.6,47.6,13.5,11.5,51.1-76.9,56.6-59.5.8l-4,7.1c-3.2,16.9,6.7,33.6,24.6,35.7,8.6,1,16.2-4.4,23-.8-24.5,11.4-40.6-7.4-63.5-7.1.2-.9-.3-2.3,0-3.2,8.8-29.4,30.5-80.4,69-57.1s17.5,20.5,25.4,25.4c9.5,5.9,20.8,6.4,30.9,10.3-7.6,6.6-26.9-1.1-29.4-.8s-15.9,16.9-19,19c22.1-32.9-20.4-68.8-48.4-42.8Z"/>
          <path class="st15" d="M873.8,623.9c1.2-.2,3.3-.4,4,.8-27,57.4-68.2,70.8-109.5,15.9l30.9,11.9c19.8,1.3,33.4.1,50.8-9.5,4.7-2.6,20.9-18.5,23.8-19Z"/>
        </g>
        <path class="st29" d="M879.3,514.4l-19,31.7c-.7-1.1-4.4-5.1-6.3-7.9-3-4.5-14.2-15.6-14.3-16.7s8.7-6.8-.8-11.9c-13.4-7.2-41.7-2.7-54.7,4.8-1.6-7.9,23.1-19.7,29.4-20.6,22-3.4,49.6,6,65.8,20.6Z"/>
        <path class="st3" d="M795.2,571.5c4.3.4,7.3,4.7,9.5,7.9-3.6,4.4.3,14.6-15.9,11.1-.2-.3.2-1.9-1.6-1.6-1-10.1-7.4-6.2,4.8-17.5,1,0,2.1,0,3.2,0Z"/>
        <path class="st30" d="M853.9,538.2c-13.4-12.1-28.2-29.5-48.4-27s-19.6,12.2-21.4,3.2c13-7.4,41.3-12,54.7-4.8s.7,11.2.8,11.9c.1,1.1,11.2,12.1,14.3,16.7Z"/>
        <g>
          <path class="st28" d="M627,509.6c5.8,0,12.1,7.5,14.3,12.7,12.7,30.7-5.1,82.3-31.7,95.2-10.8-20-17.7-60.9-45.2-63.5-30.8-2.8-43.2,44-77.8,41.3,2.7,7.3,18.5,1.4,23,1.6-1.4,5.2,10.8,10.8,11.1,13.5.4,4.1-4.9,3-4.8,6.3s25.2,20,30.9,21.4c24.5,5.8,44.1-5.3,67.4-8.7,7.2,26.9.1,55.4-17.5,77-31.7,3.4-46.4,7.7-77.8-6.3-29.7-13.3-54.6-47.6-60.3-79.3-1.8-10.2-2.5-21.4-1.6-31.7,2-23,14.2-42.7,28.6-60.3.6,10.1,7.4,6.4,8.7,12.7l1.6-3.2c11.8,8.9,0,10.3,11.9,17.5.5.3-3.6,3.8.8,3.2s25.2-17,36.5-19c13-2.4,25.2,2.1,38.1-1.6,12-3.5,34.3-28.4,43.6-28.6Z"/>
          <path class="st15" d="M493,620.7c29.3,29,68.2,44.3,106.3,20.6,6.9,4.2-31,33.5-39.7,34.9-30.3,5.1-60-28.9-66.6-55.5Z"/>
        </g>
        <path class="st29" d="M519.1,501.7c1,12.5,1.3,13.2,12.7,11.1,3.6,5.8,4.2,7,1.6,12.7-9,7.3-17.1,21.7-25.4,30.1-11.8-7.1,0-8.6-11.9-17.5l-1.6,3.2c-1.3-6.3-8.1-2.6-8.7-12.7,11.8-14.5,15.3-19.4,33.3-27Z"/>
        <path class="st29" d="M582.6,516c5.4.4,1.6-2.8,0-4-18.9-13.5-33.7-2.3-50.8.8-11.4,2.1-11.7,1.4-12.7-11.1,14.4-6.1,27.6-10.3,43.6-7.9,13.4,2,42.9,25.8,19.8,22.2Z"/>
        <path class="st30" d="M582.6,516c-23.7-3.7-27.9-7.7-49.2,9.5,2.6-5.7,2.1-6.8-1.6-12.7,17-3.1,31.9-14.3,50.8-.8s5.4,4.4,0,4Z"/>
        <path class="st17" d="M771.4,771.4h-4.8c26.5-69.8-166-69.9-139.6,0h-4.8c-8.6-39.1,7-60.9,46.8-68.2,50.7-9.3,117.7,2.5,102.3,68.2Z"/>
        <path class="st9" d="M847.6,806.3c-6.9-3.2-5-5.4-11.1-1.6-3,67.8-81.5,82-123.8,38.1,2.8-4.5,8.5-5.4,12.7-7.9,23.1,22.1,69.2,22.9,85.7-7.1,6.4-11.7,4.5-21.3,9.5-32.5,8.8-6.2,22,3.5,27,11.1Z"/>
        <path class="st9" d="M576.3,795.2c1.3,9.2-.7,17.8,3.2,27.8,12.8,33.5,66.3,35.7,88.9,11.9,4,2.4,8.1,5.1,12.7,6.3-31.6,31.8-98.3,40.8-117.4-7.9l-1.6-32.5c-8.9-4.5,3.8-2.1,0-7.1,4.8-.8,9.7.3,14.3,1.6Z"/>
        <path class="st16" d="M627,771.4c2,5.2,4.5,5.4,6.3,7.9,5.4,7.5,4.3,5.7,11.1,11.1,16.8,13.2,27,16,47.6,21.4-2.4,20.4,1.5,16.7-11.1,29.4-4.6-1.3-8.7-4-12.7-6.3-23.2-13.6-40.2-37.1-46-63.5h4.8Z"/>
        <path class="st16" d="M771.4,771.4c-6,25.7-23.5,49.9-46,63.5-4.2,2.5-9.9,3.5-12.7,7.9-1.9-1.9-8.9-6.5-9.5-8.7s-.6-22.8,0-23.8c1-1.7,28.7-7.1,37.3-11.9,8.1-4.5,12.6-10.4,18.2-17.5s5.6-3.4,7.9-9.5h4.8Z"/>
        <path class="st0" d="M576.3,795.2c-4.6-1.3-9.5-2.4-14.3-1.6-10.3,1.7-12,10.2-19.8,14.3-2-18.8,30.8-35.3,34.1-12.7Z"/>
        <path class="st0" d="M847.6,806.3c-4.9-7.6-18.1-17.3-27-11.1-9.4,1.4-1.2-8.6.8-9.5,13.4-6.3,31.6,10.2,28.6,23.8-1.1-.2-2.2-3.1-2.4-3.2Z"/>
        <path class="st1" d="M754,898.4c3.2,1.6,22.1,10.5,22.2,11.9-40.1,29.4-113.7,29.9-152.3-2.4,13.5-8.9,64.4-31.8,78.5-30.1,6.7.8,43.3,16.7,51.6,20.6Z"/>
        <path class="st18" d="M828.6,582.6c9.6,16.1-8.2,34.6-26.2,27s-10.1-13.9-13.5-19c16.2,3.5,12.3-6.8,15.9-11.1s20.7-2,23.8,3.2Z"/>
        <path class="st19" d="M787.3,589c1.8-.3,1.4,1.3,1.6,1.6,3.4,5.1,7.5,16.5,13.5,19,17.9,7.6,35.7-10.8,26.2-27,6.5-8.2,8.2,17.1,7.9,18.2-1.3,4.8-16.9,20.5-21.4,21.4-6.8,1.4-21.3-4.7-24.6-10.3s-2.8-19-3.2-23Z"/>
        <g>
          <path class="st14" d="M609.6,617.5c-21,10.2-58.7,24.1-75.4,1.6,14.7,10.9,40.2,14.3,53.2-.8,26.6-30.9-18.2-75.2-47.6-46.8s-9.5,5.8-7.9,11.9c11.4,21.9,30-8.2,11.1-11.9,13.3-15,45.6-1.4,49.2,16.7,9,46.1-64.2,52.1-62.7,4v19c-8.5-7.2-9.5-13.9-19.8-14.3s-20.3,5.7-23-1.6c34.5,2.7,46.9-44.1,77.8-41.3,27.5,2.5,34.4,43.4,45.2,63.5Z"/>
          <path class="st13" d="M542.9,571.5c18.9,3.7.3,33.8-11.1,11.9-1.6-6.1,4.3-8.4,7.9-11.9,1,0,2.2-.2,3.2,0Z"/>
          <path class="st18" d="M574.7,581c12.6,15.4.4,35-19.8,30.1s-9.1-10.8-11.9-14.3c16.7-15.4,5.9-28,31.7-15.9Z"/>
          <path class="st12" d="M542.9,596.9c2.8,3.5,4.1,12.4,11.9,14.3,20.3,4.9,32.5-14.7,19.8-30.1,1,.5,2.8-4.1,6.3.8s4.8,14.6,4.8,15.9-2.9.3-3.2,1.6,2.9,2.3,1.6,4.8-14.1,14.8-15.1,15.1c-3.3,1-6.7-3-7.9-3.2s-4.5,3.2-4.8,3.2c-.5-.1-1.8-7-7.9-7.9s3.8,5.1-1.6,4.8l-9.5-23.8c2.3,1.5,3.9,2.7,5.6,4.8Z"/>
        </g>
        <path class="st21" d="M644.5,790.5c-6.8-5.4-5.7-3.6-11.1-11.1,1-21.5,39.3-25.8,34.9.8-3.8,11.4-26.6-.6-23.8,10.3Z"/>
        <g>
          <path class="st14" d="M766.7,771.4c-2.3,6.1-5.2,6.1-7.9,9.5,4.9-23.7-42-26.5-33.3-.8,3.7,10.9,33,2.6,33.3.8-5.7,7-10.2,12.9-18.2,17.5-8.6,4.8-36.3,10.2-37.3,11.9s-.4,22.3,0,23.8c.6,2.2,7.7,6.8,9.5,8.7,42.3,43.9,120.8,29.7,123.8-38.1,14.3,64.3-45.9,85.5-98.4,69.8-12-3.6-38.1-25-40.5-25.4s-30.8,20.1-42,23.8c-54.1,17.6-116.7-4.8-96.8-70.6-.7,10.6.9,21.1,4.8,30.9,19.1,48.7,85.8,39.7,117.4,7.9,12.6-12.7,8.7-9,11.1-29.4-20.6-5.4-30.8-8.2-47.6-21.4-2.8-10.9,20,1.1,23.8-10.3,4.4-26.6-33.9-22.3-34.9-.8-1.8-2.5-4.4-2.7-6.3-7.9-26.4-69.9,166.2-69.8,139.6,0Z"/>
          <path class="st21" d="M758.7,781c-.4,1.8-29.7,10.1-33.3-.8-8.6-25.7,38.2-22.9,33.3.8Z"/>
          <path class="st3" d="M726.2,728.6c2.7.1,3.8-.2,5.6,2.4l-2.4,2.4c-8.9,7.1-57.2,7.8-67.4-2.4,15.7-1.3,31.1,1.1,46.8.8s14.9-3.3,17.5-3.2Z"/>
        </g>
      </g>
    </g>
  </g>
</svg>